<?xml version="1.0" standalone="no"?>
<!DOCTYPE svg PUBLIC "-//W3C//DTD SVG 20010904//EN"
 "http://www.w3.org/TR/2001/REC-SVG-20010904/DTD/svg10.dtd">
<svg version="1.0" xmlns="http://www.w3.org/2000/svg"
 width="2585.000000pt" height="1125.000000pt" viewBox="0 0 2585.000000 1125.000000"
 preserveAspectRatio="xMidYMid meet">
<metadata>
Created by potrace 1.15, written by Peter Selinger 2001-2017
</metadata>
<g transform="translate(0.000000,1125.000000) scale(0.100000,-0.100000)"
fill="#000000" stroke="none">
<path d="M19130 11244 c-25 -2 -121 -8 -215 -14 -423 -28 -1099 -118 -1129
-151 -7 -8 -63 -73 -125 -146 l-111 -131 0 -591 0 -590 -42 -12 c-100 -26
-410 -133 -560 -193 -1106 -439 -1885 -1114 -2178 -1889 -34 -89 -42 -102
-100 -155 -76 -68 -132 -152 -162 -241 -22 -65 -23 -73 -26 -763 -2 -411 -7
-698 -12 -698 -5 0 -10 287 -12 698 -3 690 -4 698 -26 763 -59 175 -200 308
-378 354 -87 23 -1401 22 -1489 0 -94 -24 -162 -62 -236 -133 -65 -61 -103
-121 -145 -229 -8 -21 -20 -13 -159 118 -173 162 -224 200 -315 231 l-65 23
-890 0 -890 0 -65 -24 c-36 -13 -87 -38 -115 -56 -27 -18 -179 -155 -337 -304
-159 -150 -288 -271 -288 -269 0 2 9 32 20 66 37 117 18 338 -50 601 -66 253
-191 418 -400 529 -138 73 -195 87 -360 87 -142 0 -147 -1 -210 -31 -36 -17
-90 -50 -120 -73 -75 -57 -89 -55 -140 25 -57 87 -147 174 -219 213 l-59 31
48 93 c232 440 207 1037 -67 1589 -60 122 -84 159 -132 207 -100 100 -230 148
-375 138 -144 -9 -269 -76 -351 -188 -77 -105 -89 -149 -90 -339 -2 -178 -16
-253 -57 -305 -42 -54 -340 -230 -488 -288 -47 -19 -117 -46 -155 -60 -206
-78 -397 -261 -518 -493 l-46 -91 -53 13 c-113 30 -247 13 -351 -43 l-55 -30
-63 39 c-87 53 -303 162 -397 199 -451 182 -946 259 -1467 230 -436 -25 -777
-79 -1056 -167 l-111 -35 -15 21 c-125 178 -355 386 -508 459 -196 94 -421 51
-566 -107 -87 -95 -129 -215 -129 -367 0 -158 -49 -445 -115 -676 -60 -207
-160 -436 -294 -674 -90 -158 -95 -324 -14 -482 72 -144 256 -253 424 -253 20
0 93 11 161 24 234 46 363 44 532 -10 91 -28 210 -34 287 -14 131 35 245 132
307 260 l38 80 84 -57 c109 -75 255 -215 336 -322 67 -89 197 -332 192 -358
-2 -9 -69 -42 -168 -82 -91 -37 -202 -86 -247 -109 -53 -27 -84 -38 -89 -31
-3 6 -43 38 -88 71 -146 110 -385 208 -539 224 -225 22 -443 -135 -502 -362
-12 -47 -14 -93 -9 -239 5 -141 3 -209 -10 -315 -38 -297 -112 -583 -255 -990
-47 -134 -51 -152 -51 -236 0 -214 106 -374 301 -456 45 -18 74 -22 169 -22
105 -1 120 1 180 28 114 50 163 64 265 76 119 14 262 7 425 -22 63 -11 149
-20 190 -21 212 -1 384 124 451 327 15 45 25 63 33 58 6 -5 49 -37 96 -73 219
-164 405 -404 515 -664 37 -88 87 -243 97 -300 10 -56 -233 -166 -444 -200
-405 -65 -968 15 -1398 201 -123 52 -281 44 -411 -21 -111 -57 -279 -219 -414
-401 -222 -298 -418 -730 -530 -1174 -34 -132 -32 -269 4 -363 44 -112 149
-214 271 -263 237 -94 501 -346 675 -645 149 -255 365 -334 660 -240 55 18
195 57 310 86 1097 283 2147 362 2920 220 263 -49 469 -112 699 -215 169 -76
245 -90 360 -67 235 48 386 226 390 459 l1 86 125 7 c624 32 1098 158 1450
386 272 176 531 438 735 744 80 120 179 294 216 380 13 30 26 55 29 55 3 0 19
-23 35 -51 38 -65 716 -708 799 -758 122 -73 90 -71 1049 -71 945 0 920 -2
1039 62 34 18 118 88 220 183 149 140 164 152 171 132 55 -146 144 -256 253
-314 120 -64 111 -63 875 -63 752 0 742 0 856 56 75 36 183 140 221 211 69
131 66 96 70 846 2 397 7 677 12 677 5 0 10 -280 12 -678 4 -749 1 -714 70
-845 38 -71 146 -175 221 -211 113 -56 112 -56 765 -56 l602 0 107 -62 c59
-34 197 -105 308 -159 1210 -589 2823 -815 4380 -614 325 42 676 108 934 176
93 25 116 28 126 17 7 -7 65 -71 130 -143 65 -72 123 -136 130 -143 7 -8 84
-33 171 -56 l159 -43 185 63 c1088 366 1965 920 2483 1570 286 358 473 738
564 1146 l28 123 3 2260 c2 1600 0 2289 -8 2360 -84 761 -552 1492 -1325 2068
-1065 795 -2577 1280 -4294 1377 -162 9 -969 12 -1091 4z m955 -544 c1399 -68
2636 -394 3607 -950 1206 -691 1785 -1648 1572 -2596 -73 -326 -240 -656 -476
-939 l-83 -100 -6 440 c-6 463 -10 515 -61 695 -95 344 -293 666 -593 965
-728 729 -1987 1235 -3405 1370 -520 49 -1099 49 -1630 -1 -211 -19 -542 -66
-735 -104 -82 -17 -158 -30 -167 -30 -17 0 -18 34 -18 569 l0 568 108 17 c247
39 672 80 982 95 232 12 679 12 905 1z m-12968 -1040 c51 -120 63 -177 63
-298 0 -250 -94 -465 -255 -585 l-40 -30 35 7 c61 11 173 73 222 123 26 26 61
73 77 103 35 62 35 60 20 -63 -11 -82 -16 -96 -60 -161 -50 -75 -150 -179
-211 -221 -129 -87 -372 -172 -506 -176 l-37 -1 30 -8 c63 -16 316 -10 410 9
50 10 92 17 93 15 2 -1 -27 -25 -65 -53 -145 -107 -355 -192 -563 -227 l-105
-18 -85 -99 c-152 -177 -152 -169 -4 -93 101 52 159 74 260 100 71 19 130 33
132 31 1 -1 -59 -24 -135 -50 -107 -38 -157 -62 -226 -108 -48 -33 -86 -61
-84 -63 1 -2 110 28 240 66 131 39 242 70 247 70 6 0 10 -26 10 -57 -1 -144
-57 -318 -124 -382 -40 -39 -126 -78 -213 -96 -82 -18 -274 -29 -289 -18 -6 4
-74 105 -151 223 -135 207 -140 217 -146 280 -4 36 -2 113 3 172 22 229 112
434 244 556 53 49 73 59 198 106 141 53 245 103 397 190 324 187 422 287 491
501 33 106 54 273 45 365 l-6 65 24 -40 c13 -22 42 -83 64 -135z m13163 -290
c703 -43 1335 -161 1923 -359 895 -302 1599 -774 1959 -1313 477 -713 370
-1498 -295 -2160 -559 -556 -1493 -995 -2542 -1193 -280 -53 -600 -96 -828
-111 l-97 -7 2 358 3 359 121 17 c855 123 1443 612 1364 1135 -44 290 -283
557 -660 738 -336 161 -787 252 -1205 245 l-110 -2 -163 154 c-90 85 -190 170
-222 190 l-59 36 37 7 c20 4 132 9 247 13 1021 29 2041 -356 2480 -939 78
-102 155 -246 181 -334 8 -30 17 -54 20 -54 3 0 27 11 54 25 l50 25 -26 73
c-216 601 -1007 1104 -1989 1266 -245 41 -324 46 -665 46 -358 0 -447 -8 -708
-61 -115 -23 -140 -24 -388 -22 l-266 3 98 38 c225 88 496 155 784 194 109 14
201 18 485 18 308 0 370 -3 517 -23 807 -110 1477 -402 1909 -832 176 -174
288 -336 364 -524 l38 -95 49 25 c58 29 58 30 4 154 -134 304 -401 596 -766
836 -452 297 -1026 488 -1682 560 -215 24 -651 24 -853 0 -419 -49 -770 -143
-1055 -284 l-135 -67 -335 -5 c-372 -6 -386 -8 -503 -80 -31 -19 -192 -162
-358 -318 -219 -207 -300 -278 -295 -259 28 113 13 247 -40 358 -42 88 -142
190 -231 237 -111 58 -147 62 -667 62 -442 0 -468 1 -462 18 34 90 220 345
358 487 737 766 2082 1274 3613 1364 204 12 754 12 945 1z m-19097 -710 c132
-124 209 -251 243 -395 25 -109 29 -118 56 -138 34 -25 70 -17 135 32 339 255
1338 394 2011 280 369 -62 743 -210 995 -394 l77 -56 0 -78 c0 -116 -18 -320
-41 -461 -42 -265 -103 -442 -274 -800 -100 -209 -117 -258 -130 -367 -16
-142 58 -443 185 -752 l43 -103 -49 -122 -49 -121 -7 95 c-13 173 -9 163 -44
95 -107 -204 -73 -355 79 -355 65 0 132 34 248 127 111 89 143 107 175 99 33
-9 92 -63 127 -116 l29 -45 -7 592 -7 591 67 74 c38 40 74 80 82 88 7 8 -2
-22 -22 -67 l-35 -81 15 -738 c9 -406 18 -740 20 -743 3 -2 5 13 5 35 0 21 14
351 30 732 l29 694 62 134 c35 74 65 137 69 139 3 2 46 9 95 16 50 6 94 16 99
20 5 5 -25 25 -69 46 -73 34 -86 37 -191 41 -99 4 -123 1 -203 -22 -50 -14
-113 -37 -140 -50 l-48 -25 -30 42 c-17 23 -40 61 -52 84 -24 48 -61 192 -61
239 l0 31 63 -13 c142 -30 309 36 444 175 70 71 103 133 103 191 0 37 -6 49
-53 99 -64 70 -119 171 -148 276 -27 95 -32 269 -11 352 l14 52 31 -33 c18
-18 86 -70 152 -117 140 -98 220 -176 322 -312 87 -118 144 -211 177 -293 28
-69 49 -230 40 -315 -5 -53 -5 -54 13 -33 10 12 52 68 94 126 51 70 85 107
100 110 13 3 113 29 222 57 110 29 201 51 203 48 5 -5 -141 -66 -306 -128 -63
-23 -119 -46 -125 -51 -6 -6 23 -7 70 -3 317 23 424 41 463 78 29 27 74 113
97 189 l18 57 29 -20 c46 -33 133 -59 195 -58 l58 0 -50 20 c-58 24 -110 61
-126 91 -11 21 -11 21 20 -1 79 -57 257 -86 381 -63 30 6 56 9 58 7 6 -5 -122
-45 -146 -45 -43 0 -12 -19 44 -26 116 -14 250 36 344 128 l50 49 80 -30 c88
-34 140 -38 295 -21 238 26 282 42 320 114 19 37 21 37 63 32 59 -8 157 -61
193 -105 16 -20 38 -60 49 -89 19 -51 61 -244 75 -346 6 -44 5 -48 -11 -42
-10 4 -126 34 -258 67 -139 34 -268 72 -304 89 -104 50 -179 64 -347 63 -172
0 -267 -17 -361 -63 l-62 -30 -88 42 c-71 35 -99 43 -139 42 -142 -5 -402
-168 -494 -312 -17 -27 -42 -76 -55 -109 -26 -63 -60 -215 -54 -235 3 -7 21
22 42 63 62 125 150 209 216 209 18 0 13 -6 -21 -33 -41 -31 -99 -121 -86
-133 3 -4 20 5 37 20 63 52 207 71 240 31 19 -23 70 -27 174 -15 53 6 130 12
171 12 87 0 120 -13 320 -127 204 -116 318 -154 512 -171 l82 -6 6 -53 c9 -71
-9 -180 -46 -276 l-30 -78 -89 -51 c-181 -104 -370 -180 -446 -180 l-34 0 21
43 c27 51 37 159 20 210 -18 54 -108 130 -215 182 -190 92 -384 108 -503 39
-47 -27 -111 -97 -119 -131 l-6 -23 -28 20 c-54 39 -153 79 -223 91 -84 14
-236 6 -317 -15 -30 -9 -55 -14 -55 -13 -1 1 -14 28 -29 59 -35 74 -109 140
-210 189 -44 21 -82 37 -84 34 -3 -2 13 -24 36 -49 81 -88 112 -189 112 -368
0 -83 3 -110 16 -122 22 -23 91 -20 179 8 l75 24 -22 -32 c-12 -17 -87 -122
-166 -234 l-145 -203 22 -1312 c12 -722 25 -1450 28 -1619 l6 -307 66 -25
c315 -120 728 -155 1051 -90 592 119 1001 565 1190 1297 70 270 91 440 90 734
0 375 -54 690 -181 1059 -48 138 -136 342 -196 452 -39 72 -42 82 -22 72 39
-22 200 -182 261 -262 286 -376 475 -961 528 -1642 36 -460 -26 -937 -176
-1345 -54 -149 -184 -403 -272 -536 -237 -356 -531 -610 -847 -734 -295 -116
-597 -169 -1010 -178 -405 -9 -529 9 -658 96 l-58 38 41 33 40 32 93 -16 c489
-82 948 -66 1263 45 88 30 224 97 224 109 0 4 -37 -1 -82 -11 -198 -43 -331
-54 -653 -54 -328 0 -429 8 -642 50 -161 33 -262 66 -413 135 -188 86 -313
123 -475 140 -54 6 -100 12 -102 14 -2 1 10 32 27 68 17 36 40 104 52 152 l22
87 -22 1242 c-12 683 -25 1316 -29 1407 l-6 165 -27 -85 c-34 -109 -99 -234
-173 -332 -32 -43 -130 -146 -218 -230 -184 -177 -185 -178 -175 -328 11 -164
28 -334 36 -348 3 -7 24 92 46 220 34 206 42 236 65 262 l25 29 -4 -964 c-2
-530 -7 -989 -11 -1019 l-7 -55 -26 51 c-15 27 -33 56 -41 62 -63 53 -419 79
-637 48 -212 -31 -502 -114 -687 -197 -36 -16 -66 -29 -68 -29 -1 0 13 50 32
111 20 65 32 120 29 134 -11 42 -55 83 -114 105 -122 47 -238 21 -707 -158
-364 -138 -521 -175 -646 -153 -116 20 -223 90 -288 188 -31 46 -31 46 -31 16
0 -52 39 -185 75 -260 80 -163 215 -216 416 -164 42 11 158 53 260 94 101 41
241 93 311 116 131 42 390 111 419 111 14 0 11 -17 -22 -114 -39 -119 -69
-244 -69 -293 0 -40 26 -73 57 -73 14 0 64 17 112 39 409 184 854 287 1204
279 80 -2 149 -7 153 -11 13 -12 -13 -92 -67 -208 -54 -116 -55 -138 -7 -156
13 -4 145 -7 293 -5 298 4 437 -8 645 -54 120 -27 270 -71 282 -83 4 -4 -26
-31 -68 -61 -90 -64 -104 -82 -104 -132 0 -49 47 -103 145 -167 86 -56 192
-162 309 -308 103 -129 138 -180 116 -171 -8 4 -64 29 -125 56 -453 204 -1143
318 -1801 298 l-202 -6 -43 66 c-34 53 -40 67 -28 75 16 10 236 15 489 11 308
-5 570 -31 838 -83 84 -16 160 -32 170 -35 58 -17 -71 40 -158 71 -378 132
-897 193 -1417 167 -675 -34 -1360 -170 -2111 -421 l-143 -48 -61 81 c-88 116
-326 349 -438 428 -70 50 -261 158 -308 174 -1 0 16 64 38 142 98 348 236 649
408 892 71 101 240 280 264 280 8 0 53 -16 101 -35 186 -75 504 -154 767 -190
159 -22 518 -31 661 -16 575 60 935 295 1165 761 104 209 151 400 161 641 11
293 -42 551 -173 846 -45 100 -46 105 -29 123 29 32 98 60 146 60 74 0 78 -13
20 -56 l-52 -39 33 -7 c36 -9 118 -1 158 14 104 39 92 152 -26 245 -142 111
-390 180 -684 190 -342 11 -688 -62 -995 -212 -243 -118 -401 -292 -436 -480
-17 -88 -20 -94 -31 -55 -6 19 -8 80 -6 135 4 81 11 115 37 181 33 85 89 174
149 236 20 21 34 40 31 42 -12 12 -151 -85 -219 -153 -115 -116 -160 -223
-160 -381 0 -54 7 -111 19 -155 11 -38 19 -71 17 -72 -1 -1 -40 2 -87 7 -107
13 -332 12 -429 0 -98 -13 -232 -47 -296 -75 l-52 -23 24 62 c44 110 135 398
174 551 89 341 123 572 124 842 1 106 1 193 2 193 0 0 34 -11 74 -25 151 -51
265 -141 373 -294 28 -41 64 -83 78 -93 33 -25 48 -19 214 81 466 282 1106
469 1790 525 39 4 12 -8 -124 -53 -117 -38 -169 -60 -157 -64 29 -11 311 -8
368 4 97 21 146 100 118 192 -22 74 -158 197 -328 297 l-73 43 20 21 c32 34
80 146 105 247 32 127 55 310 63 506 l6 163 36 9 c95 25 292 63 297 58 3 -3
-2 -19 -10 -36 -18 -34 -93 -81 -170 -107 -42 -14 -46 -18 -30 -27 30 -17 159
-21 210 -7 60 17 118 72 133 126 27 101 -51 210 -239 334 -228 149 -485 238
-791 271 -148 16 -482 6 -634 -20 -398 -67 -710 -213 -952 -445 -93 -88 -95
-90 -88 -56 28 133 162 308 295 389 70 42 -3 22 -110 -30 -89 -44 -116 -64
-190 -138 -136 -137 -205 -293 -217 -492 l-6 -96 -71 22 c-184 59 -507 58
-740 -1 l-29 -7 37 64 c65 111 182 359 229 485 115 309 188 647 213 991 l6 93
46 -33 c25 -17 82 -66 125 -107z m5664 -674 c80 -67 275 -132 414 -139 41 -2
81 -7 88 -12 24 -14 71 -99 71 -126 0 -31 -35 -79 -57 -79 -9 0 -50 20 -92 44
-120 70 -184 88 -346 95 -168 7 -189 16 -198 83 -11 83 21 158 69 158 12 0 35
-11 51 -24z m-3619 -257 c114 -12 221 -33 314 -60 l67 -20 -33 -43 c-46 -60
-54 -101 -65 -346 -16 -325 -50 -505 -107 -573 -69 -82 -93 -206 -60 -308 10
-28 16 -52 14 -54 -2 -1 -64 -14 -138 -29 -74 -15 -161 -33 -193 -41 -44 -10
-59 -11 -62 -2 -94 292 -153 422 -263 588 -154 230 -371 437 -598 570 l-75 44
28 23 c46 37 261 138 363 171 242 76 560 107 808 80z m3866 -110 c65 -20 94
-35 85 -43 -2 -3 -46 -10 -97 -17 -110 -14 -147 -6 -206 43 -35 28 -37 33 -20
40 29 12 170 -1 238 -23z m821 -484 c22 -4 74 -22 115 -40 69 -31 115 -46 228
-75 23 -6 40 -15 37 -21 -9 -14 -95 -55 -130 -63 -27 -6 -37 -1 -81 41 -48 46
-195 140 -235 150 -27 7 -24 24 4 19 12 -3 40 -8 62 -11z m3928 -465 l307
-291 -1 -1982 0 -1982 -312 -292 -312 -293 -770 0 -770 0 -312 293 -312 292 0
1982 -1 1982 308 290 307 291 780 0 780 0 308 -290z m2077 -474 l0 -764 271
-243 c148 -134 274 -245 278 -247 10 -3 381 541 392 577 5 14 41 328 80 696
38 369 73 687 76 708 l6 37 603 0 c332 0 604 -3 604 -6 0 -4 -61 -121 -135
-260 l-135 -252 -1 -639 -1 -638 -433 -390 c-239 -214 -434 -392 -434 -395 0
-3 195 -180 434 -395 l434 -390 1 -620 1 -620 139 -260 139 -260 -606 -3
c-333 -1 -608 -1 -610 1 -1 2 -40 325 -86 718 l-82 714 -190 278 c-104 152
-192 276 -196 275 -4 -2 -130 -112 -278 -246 l-271 -243 0 -749 0 -750 -609 0
-609 0 139 264 139 264 0 618 1 619 434 389 c239 214 435 392 435 395 0 4
-195 182 -434 396 l-435 390 0 638 -1 639 -135 255 c-74 140 -135 257 -135
259 0 2 272 4 605 4 l605 0 0 -764z m5643 472 l307 -292 0 -2010 0 -2009 101
-191 c56 -105 120 -224 141 -263 l40 -73 -636 0 -636 0 0 2170 0 2170 -410 0
-410 0 0 -970 0 -970 398 -2 398 -3 -397 -375 -397 -375 -1 -822 -1 -823 -631
0 c-532 0 -630 2 -626 14 3 7 64 125 136 262 l131 248 0 2011 0 2010 311 293
310 292 782 0 782 -1 308 -291z m847 147 c472 -59 886 -236 1095 -468 68 -75
131 -200 144 -282 42 -279 -211 -559 -665 -738 -140 -55 -478 -137 -566 -137
-17 0 -18 27 -18 638 0 692 0 687 -57 801 -15 30 -59 88 -97 128 l-69 73 55 0
c29 0 109 -7 178 -15z m-11546 -224 c-13 -33 -29 -83 -34 -112 -6 -30 -10
-283 -11 -593 l-1 -541 -20 45 c-54 120 -190 344 -264 436 l-34 42 30 66 c16
36 42 109 57 163 23 86 26 117 27 258 1 88 -2 175 -6 193 l-7 32 53 0 c58 0
169 30 201 54 33 25 34 19 9 -43z m16443 -1906 l-3 -1430 -22 -96 c-33 -145
-96 -319 -167 -464 -319 -649 -1015 -1223 -1988 -1639 -178 -77 -514 -205
-546 -209 -22 -2 -249 240 -235 252 5 4 56 25 114 46 239 86 588 249 815 380
148 85 365 232 490 331 134 107 350 316 457 444 263 314 424 678 468 1055 6
57 10 518 10 1242 l0 1152 136 153 c201 227 351 431 440 603 l29 55 3 -223 c1
-122 1 -865 -1 -1652z m-8771 288 c-2 -2 -18 4 -35 14 -25 14 -30 22 -24 38 4
11 10 304 13 650 5 605 6 632 25 669 l20 39 3 -703 c1 -387 0 -705 -2 -707z
m-9407 1026 c30 -10 56 -21 58 -23 3 -3 -3 -35 -12 -72 -21 -83 -14 -137 26
-222 58 -120 165 -176 324 -170 l86 3 19 -65 c55 -185 74 -346 73 -625 -3
-815 -175 -1434 -483 -1735 -89 -88 -173 -140 -285 -177 -76 -26 -90 -27 -270
-27 -201 0 -311 14 -420 55 l-53 20 -6 202 c-3 111 -13 668 -22 1238 l-16
1036 145 204 c79 112 152 219 161 236 l16 33 39 -26 c150 -99 348 -57 442 92
l34 54 45 -6 c25 -3 69 -14 99 -25z m11511 -211 l-1 -143 -39 45 c-40 45 -102
162 -114 213 l-6 27 80 0 80 0 0 -142z m-169 -313 c48 -49 106 -103 128 -120
l41 -30 0 -427 0 -428 -170 0 -170 0 0 618 0 617 42 -70 c23 -38 81 -110 129
-160z m-14979 -561 c35 -6 37 -8 30 -33 -4 -14 -7 -57 -7 -96 0 -65 4 -79 61
-200 131 -276 182 -533 156 -787 -16 -165 -87 -422 -100 -363 -10 47 -96 254
-143 346 -180 350 -486 667 -842 870 l-110 64 69 32 c150 69 413 141 589 161
97 11 247 14 297 6z m4557 -209 c30 -179 41 -309 41 -490 0 -318 -46 -597
-145 -885 -45 -129 -149 -348 -169 -356 -17 -7 -133 29 -161 50 -17 12 -15 18
28 87 219 353 351 895 374 1536 3 101 7 182 9 180 1 -1 12 -56 23 -122z m8491
-97 l0 -87 -36 24 c-27 19 -50 25 -88 25 -89 0 -87 7 -84 -244 l3 -219 103
-64 102 -65 0 -120 c0 -66 -3 -118 -7 -116 -57 28 -68 38 -95 92 -47 93 -64
112 -309 332 -126 113 -229 209 -229 214 0 4 6 13 13 19 11 8 29 -2 81 -43 38
-30 88 -68 112 -86 l44 -31 0 189 0 188 101 90 101 90 94 -50 93 -51 1 -87z
m-3632 -102 c72 -65 132 -122 132 -126 0 -4 -35 -38 -77 -76 -43 -38 -122
-109 -175 -157 l-98 -89 0 322 0 322 43 -38 c23 -21 102 -92 175 -158z m9982
-396 l0 -480 -80 -40 c-222 -112 -626 -260 -954 -350 -452 -125 -885 -198
-1424 -243 l-33 -3 3 115 3 116 110 10 110 10 0 200 c0 189 -1 202 -23 243
-30 56 -92 100 -153 108 l-49 7 0 89 c0 62 4 90 13 92 6 2 101 11 211 20 666
57 1373 221 1961 457 94 37 199 81 235 98 36 17 66 30 68 31 1 0 2 -216 2
-480z m-702 -1486 l-3 -457 -40 -14 c-189 -66 -614 -173 -888 -222 -162 -30
-509 -81 -545 -81 -16 0 -21 12 -30 66 -6 36 -25 95 -42 132 -18 39 -27 68
-21 70 18 6 14 288 -4 349 -24 81 -103 143 -181 143 l-34 0 0 69 0 70 53 5
c28 3 106 11 172 17 473 42 1013 145 1430 273 61 19 116 34 123 35 10 1 12
-93 10 -455z m-14503 226 c14 0 13 -5 -7 -32 -44 -63 -152 -170 -231 -229 -96
-72 -273 -160 -381 -190 -95 -25 -235 -49 -252 -42 -20 8 -74 98 -90 149 -8
26 -13 48 -12 49 2 1 48 7 103 13 252 29 444 118 616 285 l74 72 81 -37 c45
-21 89 -38 99 -38z m-1387 -250 c54 -11 137 -23 184 -26 l86 -7 17 -65 c9 -35
25 -82 35 -103 11 -21 20 -41 20 -44 0 -10 -158 -4 -255 10 -54 8 -148 27
-207 41 l-108 26 0 118 0 118 65 -24 c36 -13 109 -33 163 -44z m15890 -1001
l-3 -294 -76 -27 c-42 -14 -87 -28 -100 -30 l-24 -3 -5 182 -5 181 -31 39
c-46 57 -98 83 -167 83 -91 0 -158 -43 -192 -122 -12 -30 -15 -81 -15 -258 0
-121 -1 -220 -2 -220 -2 0 -53 -11 -115 -24 -62 -13 -114 -21 -118 -18 -3 3
-5 78 -5 166 0 174 -10 216 -61 263 -80 74 -225 69 -295 -9 -50 -55 -54 -74
-54 -287 0 -110 -4 -202 -8 -205 -9 -5 -234 -36 -264 -36 -17 0 -18 13 -18
151 0 176 -10 223 -56 278 l-35 40 53 76 c28 41 58 75 65 75 6 0 103 12 215
26 393 49 776 128 1123 228 99 29 183 50 188 46 4 -3 6 -139 5 -301z m-3668
-163 c47 -44 132 -93 203 -115 l37 -13 0 -149 c0 -126 -2 -149 -15 -149 -19 0
-212 28 -242 35 -23 5 -23 7 -23 178 -1 116 -5 184 -14 209 -12 34 -11 48 2
48 3 0 26 -20 52 -44z m-460 -220 l0 -84 -107 27 -108 27 -3 57 -3 57 111 0
110 0 0 -84z m1430 -93 l0 -178 -117 7 c-65 3 -135 7 -155 7 l-38 1 0 170 0
170 155 0 155 0 0 -177z m720 3 l0 -173 -46 -7 c-26 -3 -93 -6 -150 -6 l-104
0 0 180 0 180 150 0 150 0 0 -174z m-16717 -173 c15 -37 25 -68 23 -70 -1 -2
-77 -10 -167 -19 -330 -31 -632 -76 -1001 -150 l-227 -46 -61 47 c-34 26 -60
49 -58 50 8 9 305 79 503 119 320 65 774 132 916 135 l46 1 26 -67z m-1550
-300 c23 -26 28 -23 -93 -53 -83 -21 -389 -106 -415 -117 -13 -4 -65 64 -65
85 0 8 286 103 450 150 l65 18 19 -30 c10 -17 27 -41 39 -53z"/>
<path d="M19465 8999 c-600 -51 -1168 -201 -1627 -430 -68 -34 -124 -62 -126
-64 -6 -5 42 -95 51 -95 5 0 33 13 61 29 28 16 112 56 186 89 589 261 1268
387 1975 369 262 -7 388 -18 633 -53 1007 -144 1891 -553 2492 -1154 251 -250
437 -514 565 -800 21 -47 39 -86 40 -88 2 -2 26 8 53 22 l51 26 -22 52 c-43
105 -131 265 -211 388 -605 919 -1759 1539 -3156 1696 -171 19 -793 28 -965
13z"/>
<path d="M19595 8724 c-532 -42 -952 -130 -1337 -280 -135 -52 -351 -150 -396
-180 l-23 -15 22 -37 c12 -20 25 -41 29 -45 4 -5 53 15 109 43 959 481 2302
537 3461 145 372 -125 757 -319 1057 -532 202 -143 437 -360 578 -535 135
-167 275 -400 343 -566 l21 -53 51 26 c59 30 59 22 -5 160 -130 280 -350 571
-610 808 -625 570 -1518 939 -2525 1042 -146 16 -662 28 -775 19z"/>
<path d="M19629 8439 c-562 -29 -1104 -162 -1532 -375 -61 -31 -114 -58 -117
-61 -5 -4 42 -93 50 -93 3 0 54 24 115 54 771 380 1804 471 2790 245 1076
-246 1923 -849 2236 -1589 17 -41 33 -76 34 -78 2 -2 25 9 52 25 l50 27 -29
70 c-99 240 -274 492 -495 713 -434 431 -1040 752 -1753 927 -321 79 -595 118
-945 136 -218 11 -240 11 -456 -1z"/>
<path d="M19520 8149 c-467 -40 -910 -154 -1269 -325 -74 -35 -136 -66 -139
-68 -5 -5 35 -83 47 -90 5 -3 64 21 132 53 247 117 464 189 744 246 418 85
839 105 1275 59 1078 -111 1997 -575 2445 -1234 55 -81 141 -246 177 -338 l17
-43 51 26 c60 31 61 21 -16 183 -102 216 -227 384 -430 582 -216 209 -433 362
-734 514 -434 220 -909 357 -1460 422 -160 19 -683 27 -840 13z"/>
<path d="M8280 7535 c-19 -23 -14 -98 10 -145 l21 -42 -45 4 c-25 2 -46 0 -46
-4 0 -17 87 -69 138 -84 135 -40 188 31 122 164 -23 45 -43 69 -77 91 -50 34
-103 40 -123 16z"/>
<path d="M10350 4400 l0 -1770 405 0 405 0 0 1770 0 1770 -405 0 -405 0 0
-1770z m570 0 l0 -1530 -165 0 -165 0 0 1530 0 1530 165 0 165 0 0 -1530z"/>
<path d="M21680 4028 c-25 -14 -58 -44 -75 -67 l-30 -43 -3 -265 -3 -265 23 5
c13 2 105 24 206 48 l182 43 0 210 c0 200 -2 213 -23 251 -54 95 -182 133
-277 83z"/>
<path d="M21030 3868 c-25 -14 -58 -44 -75 -67 l-30 -43 -3 -239 c-2 -131 0
-239 3 -239 7 0 309 46 368 56 l37 7 0 197 c0 185 -1 199 -23 239 -52 100
-180 140 -277 89z"/>
<path d="M21725 2859 c-51 -12 -110 -59 -135 -110 -18 -35 -20 -59 -20 -263
l0 -224 108 23 c59 13 151 34 202 48 l95 23 3 165 c2 90 0 179 -3 197 -10 52
-77 119 -138 137 -56 17 -55 17 -112 4z"/>
<path d="M21035 2685 c-42 -23 -81 -62 -100 -100 -12 -26 -15 -73 -15 -233 l0
-200 41 5 c22 3 113 18 202 32 l162 26 2 170 c3 160 2 172 -20 209 -12 22 -39
53 -60 70 -34 27 -47 31 -110 34 -52 2 -80 -2 -102 -13z"/>
</g>
</svg>
