<?xml version="1.0" standalone="no"?>
<!DOCTYPE svg PUBLIC "-//W3C//DTD SVG 20010904//EN"
 "http://www.w3.org/TR/2001/REC-SVG-20010904/DTD/svg10.dtd">
<svg version="1.0" xmlns="http://www.w3.org/2000/svg"
 width="1121.000000pt" height="1125.000000pt" viewBox="0 0 1121.000000 1125.000000"
 preserveAspectRatio="xMidYMid meet">
<metadata>
Created by potrace 1.15, written by Peter Selinger 2001-2017
</metadata>
<g transform="translate(0.000000,1125.000000) scale(0.100000,-0.100000)"
fill="#000000" stroke="none">
<path d="M4405 11239 c-209 -12 -486 -37 -705 -65 -224 -28 -507 -72 -532 -82
-10 -4 -71 -71 -138 -150 l-120 -143 0 -589 0 -589 -42 -12 c-211 -56 -709
-244 -890 -335 -44 -22 -49 -23 -89 -9 -23 8 -72 18 -108 21 -234 21 -461
-143 -511 -372 -11 -47 -15 -52 -123 -130 -159 -116 -312 -250 -460 -404 -376
-391 -607 -836 -671 -1299 -23 -164 -24 -3681 -1 -3836 73 -490 297 -919 697
-1331 l118 -121 -26 -84 c-90 -298 -94 -404 -23 -555 48 -102 116 -162 271
-237 163 -80 263 -153 394 -289 106 -111 189 -220 273 -360 83 -138 195 -228
322 -257 102 -24 179 -14 398 48 628 180 1269 296 1886 342 163 12 864 -3
1045 -22 305 -32 639 -119 885 -231 203 -91 271 -107 391 -88 232 36 404 233
404 465 0 87 -14 81 193 94 l137 9 53 -56 c44 -47 159 -172 188 -206 4 -4 80
-27 169 -51 l161 -42 167 57 c1206 412 2091 998 2616 1734 185 259 344 593
416 877 59 231 54 21 58 2499 2 1620 0 2293 -8 2365 -92 824 -637 1606 -1540
2210 -1061 710 -2470 1133 -4084 1225 -204 11 -962 11 -1171 -1z m1240 -549
c547 -39 983 -101 1455 -207 187 -41 588 -147 598 -158 3 -3 -1 -6 -9 -8 -180
-50 -281 -124 -349 -257 -45 -89 -53 -133 -51 -289 2 -209 -21 -277 -116 -343
-45 -30 -48 -31 -97 -20 -707 156 -1208 212 -1891 212 -562 0 -1071 -46 -1550
-140 -82 -17 -158 -30 -167 -30 -17 0 -18 34 -18 570 0 314 3 570 6 570 3 0
83 11 177 24 289 41 569 67 997 90 127 7 868 -3 1015 -14z m2586 -549 c190
-75 347 -145 539 -241 1131 -566 1797 -1335 1889 -2182 54 -494 -117 -1013
-485 -1473 -127 -158 -114 -188 -114 267 0 491 -11 591 -91 833 -186 563 -688
1098 -1395 1488 l-113 62 -1 160 c-1 243 -32 426 -115 665 -48 138 -163 374
-210 428 -20 23 -35 42 -32 42 2 0 60 -22 128 -49z m-406 -416 c76 -163 90
-222 89 -365 -1 -222 -62 -396 -178 -515 -34 -34 -72 -69 -86 -78 l-25 -17 35
6 c105 19 240 120 294 219 l27 50 -6 -84 c-3 -46 -12 -99 -20 -118 -41 -97
-177 -244 -288 -311 -122 -73 -297 -134 -439 -151 l-63 -7 59 -9 c86 -11 340
0 410 19 32 9 61 15 63 13 6 -6 -94 -79 -162 -118 -136 -79 -364 -155 -526
-174 -44 -6 -50 -10 -146 -123 -54 -64 -103 -123 -108 -131 -4 -7 48 16 116
52 92 49 154 73 242 97 66 17 121 30 123 27 2 -2 -53 -23 -122 -47 -99 -35
-146 -58 -217 -107 -50 -35 -88 -63 -84 -63 3 0 114 32 245 70 131 39 242 70
247 70 4 0 5 -48 3 -107 -6 -127 -33 -218 -87 -296 -65 -92 -198 -141 -423
-154 l-106 -6 -137 209 c-76 115 -145 225 -153 244 -21 50 -11 266 18 385 33
137 106 280 187 366 78 82 117 107 233 145 47 15 157 64 245 108 435 221 573
350 650 611 22 73 28 118 32 238 3 81 8 147 10 147 2 0 24 -43 48 -95z m-2020
-364 c296 -27 574 -63 815 -107 199 -36 196 -34 93 -73 -181 -69 -205 -80
-259 -112 -31 -19 -85 -61 -121 -93 l-65 -59 -171 27 c-290 45 -438 58 -762
63 -337 6 -517 -3 -780 -40 -169 -23 -178 -23 -602 -12 -482 13 -946 -40
-1323 -151 -176 -52 -160 -52 -199 6 -19 28 -32 53 -29 55 9 10 318 124 453
168 561 183 1168 294 1840 336 178 12 951 6 1110 -8z m-260 -471 c245 -16 625
-65 625 -81 0 -5 -18 -36 -39 -69 -22 -34 -41 -66 -43 -71 -2 -6 -40 -4 -103
5 -191 29 -412 47 -640 52 l-230 6 -115 39 c-63 22 -160 53 -215 68 -118 34
-113 37 85 50 197 12 492 13 675 1z m-3724 -147 c195 -148 303 -300 344 -483
24 -107 33 -127 64 -140 34 -14 66 -3 132 46 177 129 542 236 999 290 176 21
584 29 756 15 306 -24 624 -105 895 -226 118 -54 308 -166 393 -233 l29 -22
-6 -193 c-13 -423 -80 -675 -303 -1137 -123 -255 -139 -312 -130 -465 9 -164
70 -385 177 -649 l48 -120 -47 -118 c-26 -65 -50 -118 -54 -118 -5 0 -8 55 -8
123 0 121 -1 122 -19 98 -39 -51 -74 -154 -79 -232 -4 -76 -4 -77 30 -114 31
-34 41 -39 91 -43 48 -4 65 0 119 26 35 17 86 49 113 71 109 90 168 131 189
131 34 0 84 -36 119 -86 17 -26 38 -54 45 -63 12 -16 11 300 -3 944 l-5 220
80 85 c81 86 84 85 40 -15 l-22 -50 12 -715 c7 -393 16 -721 19 -728 4 -7 20
308 35 700 l28 713 65 142 65 141 100 13 c54 7 101 15 103 19 7 11 -84 56
-149 75 -46 14 -84 16 -170 12 -114 -5 -196 -26 -293 -75 l-42 -22 -27 33
c-56 66 -98 185 -118 330 -4 34 -3 38 12 32 103 -40 252 -16 369 58 77 49 171
145 203 209 46 93 42 115 -42 207 -63 69 -122 193 -144 300 -18 93 -16 273 5
325 l12 29 37 -35 c20 -19 82 -66 137 -103 212 -145 432 -417 513 -633 20 -56
26 -91 30 -205 l5 -138 66 93 c115 160 100 151 311 206 185 49 269 68 260 59
-8 -8 -216 -92 -326 -132 -126 -46 -140 -59 -54 -51 36 3 101 8 145 11 215 15
313 40 348 88 28 38 75 142 83 186 4 17 9 31 12 31 2 0 34 -15 70 -32 54 -27
80 -33 142 -36 l75 -2 -51 20 c-47 19 -140 87 -131 96 2 3 24 -7 48 -21 69
-39 176 -59 283 -52 50 3 100 8 111 11 11 4 0 -3 -24 -15 -25 -12 -62 -24 -83
-26 -51 -7 -39 -20 25 -28 115 -15 238 30 336 121 l58 53 79 -30 c77 -30 82
-31 199 -25 145 7 296 30 348 53 26 11 47 31 64 61 26 44 27 44 70 38 64 -8
134 -49 185 -105 57 -64 88 -162 122 -398 12 -75 11 -83 -3 -79 -9 3 -124 32
-256 66 -132 33 -269 73 -305 89 -120 54 -180 65 -350 64 -178 0 -267 -16
-357 -62 l-61 -30 -98 45 c-88 40 -104 44 -147 38 -181 -23 -433 -204 -511
-366 -36 -75 -76 -219 -76 -273 0 -25 6 -19 37 44 58 116 157 211 219 211 12
0 5 -11 -25 -36 -38 -33 -81 -98 -81 -124 0 -6 18 1 39 16 42 28 119 54 159
54 14 0 48 -12 77 -26 l51 -26 152 15 c213 20 237 15 419 -95 197 -118 337
-168 528 -190 l110 -13 3 -87 c3 -96 -13 -176 -54 -268 -24 -55 -26 -56 -157
-127 -155 -85 -300 -143 -374 -150 -29 -3 -53 -3 -53 -1 0 3 9 25 19 49 44 99
36 200 -20 264 -101 115 -387 220 -548 200 -106 -12 -210 -79 -241 -155 -7
-17 -16 -30 -21 -30 -4 0 -29 13 -56 29 -142 88 -336 103 -550 45 -17 -5 -23
-2 -23 10 0 29 -40 97 -83 140 -46 46 -130 97 -197 121 l-43 15 43 -46 c23
-25 56 -75 73 -112 29 -63 31 -75 36 -220 6 -138 8 -155 26 -169 26 -19 109
-13 189 16 33 11 60 20 61 18 1 -1 -73 -108 -165 -237 l-167 -235 8 -450 c4
-247 10 -601 13 -785 3 -184 11 -650 17 -1035 6 -385 14 -761 17 -835 l7 -135
80 -27 c230 -78 438 -112 685 -112 199 0 310 15 470 61 349 100 649 344 838
681 139 248 241 558 294 897 32 202 32 634 0 842 -56 374 -166 721 -332 1046
l-69 138 60 -48 c129 -101 266 -268 366 -446 344 -614 485 -1582 337 -2327
-89 -448 -284 -872 -545 -1185 -102 -122 -276 -286 -385 -364 -341 -242 -851
-361 -1492 -348 -279 5 -340 14 -432 63 -64 34 -117 72 -109 78 2 1 21 15 41
30 l37 28 93 -16 c202 -34 375 -49 593 -49 305 -1 513 32 720 112 75 29 182
88 174 96 -2 1 -42 -5 -89 -16 -199 -43 -331 -54 -660 -54 -242 1 -344 5 -440
18 -253 35 -404 77 -595 164 -200 91 -337 130 -528 148 l-68 7 15 23 c25 38
64 149 81 231 14 68 13 168 -5 1117 -11 573 -23 1203 -27 1400 l-6 357 -36
-108 c-68 -203 -170 -347 -392 -551 -74 -68 -142 -135 -151 -150 -23 -33 -23
-147 -3 -356 8 -82 15 -157 15 -165 2 -48 21 39 54 235 33 192 40 223 62 245
l24 25 -1 -610 c-1 -336 -5 -794 -8 -1019 l-6 -409 -35 64 -35 64 -90 24
c-112 29 -363 40 -513 22 -202 -25 -499 -107 -696 -192 -50 -21 -91 -37 -93
-36 -1 2 13 52 31 112 38 123 36 143 -17 195 -61 59 -191 76 -322 41 -71 -19
-178 -57 -499 -176 -215 -80 -388 -131 -476 -140 -81 -8 -177 8 -247 42 -49
24 -145 113 -185 173 -18 25 -18 25 -11 -20 9 -69 50 -205 78 -261 31 -60 87
-118 140 -144 32 -16 60 -20 140 -20 92 0 110 4 215 41 63 23 158 59 210 81
159 67 462 162 656 207 l62 14 -40 -114 c-84 -244 -90 -374 -17 -374 11 0 78
25 149 55 252 108 569 201 815 241 111 18 495 27 510 12 11 -11 -21 -107 -70
-206 -25 -51 -45 -102 -45 -112 0 -11 12 -28 27 -37 25 -16 52 -18 298 -15
300 4 452 -9 654 -54 121 -27 271 -71 283 -83 5 -4 -26 -31 -67 -59 -75 -52
-115 -99 -115 -136 0 -37 44 -88 123 -144 45 -31 109 -83 143 -114 106 -99
352 -402 313 -385 -8 3 -60 26 -117 52 -465 207 -1110 315 -1806 304 l-210 -4
-43 64 c-23 36 -40 67 -37 70 12 12 389 18 608 10 312 -12 613 -49 846 -103
35 -8 66 -14 68 -12 7 8 -206 85 -313 115 -872 240 -2035 144 -3321 -277
l-212 -69 -41 57 c-72 99 -203 241 -301 328 -111 98 -301 227 -394 268 -36 16
-66 34 -66 40 0 30 97 333 147 459 135 341 273 565 468 762 l91 92 109 -44
c310 -124 708 -202 1085 -212 410 -11 687 41 953 179 207 109 350 245 476 456
147 247 220 481 237 762 16 261 -56 603 -181 865 l-43 90 21 23 c35 38 92 62
144 62 78 0 82 -12 21 -56 l-53 -39 75 -3 c168 -7 230 69 155 188 -92 145
-444 260 -798 260 -404 0 -882 -138 -1133 -328 -150 -114 -242 -262 -261 -419
-6 -53 -7 -55 -15 -28 -47 174 12 387 154 556 l61 73 -49 -29 c-163 -94 -262
-204 -316 -351 -29 -81 -30 -241 0 -332 l20 -62 -66 7 c-37 5 -157 8 -267 7
-217 -1 -319 -16 -458 -68 -37 -14 -67 -23 -67 -21 0 3 31 98 69 212 171 513
247 919 239 1276 l-3 148 29 -7 c50 -11 164 -61 213 -95 73 -49 138 -115 205
-209 34 -47 68 -91 76 -97 32 -26 73 -14 188 57 282 173 604 305 989 405 274
71 578 122 820 138 l70 5 -175 -58 c-208 -68 -205 -74 42 -68 186 4 243 20
272 77 26 49 21 120 -13 172 -44 70 -196 191 -341 271 l-31 18 19 27 c57 81
102 206 126 351 23 135 25 164 32 370 7 184 8 193 28 197 65 16 303 65 313 65
18 0 5 -30 -30 -67 -25 -27 -61 -47 -167 -90 -25 -10 -24 -11 15 -22 92 -25
206 -8 266 41 31 25 59 83 59 121 0 87 -47 153 -184 255 -146 109 -376 216
-571 266 -194 50 -569 70 -795 43 -411 -49 -745 -185 -1021 -413 -42 -35 -92
-81 -113 -104 -35 -39 -36 -39 -30 -13 34 143 129 277 268 380 32 23 52 43 45
43 -30 0 -217 -102 -271 -147 -154 -129 -244 -317 -255 -531 -5 -90 -8 -102
-22 -96 -48 21 -154 44 -244 55 -155 18 -346 5 -555 -37 l-33 -7 47 79 c231
387 409 980 431 1431 4 85 9 120 17 116 6 -4 36 -26 67 -50z m6718 -170 c199
-116 512 -343 588 -424 l22 -24 -113 3 c-159 6 -238 -19 -356 -107 -78 -59
-98 -56 -145 22 -51 82 -146 174 -222 215 l-61 32 43 76 c24 42 56 111 71 153
15 42 31 87 36 100 10 28 12 28 137 -46z m-2836 21 c84 -8 87 -14 17 -33 -25
-7 -69 -26 -99 -42 l-54 -29 -71 44 c-39 24 -84 51 -101 60 -29 16 -25 17 100
12 72 -3 165 -9 208 -12z m-4599 -630 c-56 -166 -143 -353 -255 -551 -22 -40
-47 -97 -55 -125 -18 -70 -18 -180 2 -253 45 -174 206 -317 389 -345 74 -12
95 -10 250 23 75 15 137 21 250 21 138 0 156 -2 230 -28 114 -39 239 -46 333
-17 134 41 230 125 301 269 l31 62 29 -15 c108 -55 318 -252 417 -390 56 -79
174 -306 174 -335 0 -10 -44 -32 -128 -64 -70 -27 -182 -75 -250 -107 l-123
-58 -57 46 c-237 193 -549 292 -748 238 -152 -41 -294 -186 -330 -335 -4 -19
-9 -145 -9 -280 -1 -186 -5 -273 -19 -360 -10 -63 -22 -121 -25 -128 -12 -22
-218 145 -381 308 -307 306 -486 614 -562 963 -32 147 -32 437 0 584 55 254
174 502 351 730 76 98 201 236 208 229 2 -2 -8 -39 -23 -82z m6502 7 c108 -70
259 -118 392 -124 63 -2 75 -6 102 -32 16 -15 37 -48 46 -71 16 -41 15 -45 -3
-76 -10 -18 -28 -34 -39 -36 -10 -1 -55 18 -99 43 -121 69 -186 86 -352 94
-130 6 -145 8 -165 29 -19 19 -23 33 -23 90 0 79 21 122 59 122 13 0 50 -17
82 -39z m-3641 -241 c110 -13 229 -36 313 -62 63 -19 63 -20 48 -41 -9 -12
-28 -44 -43 -72 -25 -48 -27 -59 -34 -255 -13 -369 -45 -533 -123 -634 -37
-49 -66 -128 -66 -181 0 -29 19 -111 34 -146 6 -13 -9 -19 -91 -33 -54 -10
-143 -28 -198 -41 -55 -13 -100 -23 -101 -22 0 1 -15 49 -33 107 -137 436
-423 808 -806 1044 -52 33 -95 62 -95 66 0 10 149 95 225 128 196 85 363 122
650 145 92 8 236 6 320 -3z m3830 -101 c72 -19 126 -42 118 -50 -5 -5 -52 -14
-104 -21 -109 -13 -137 -7 -197 46 -25 22 -30 31 -20 38 15 11 146 2 203 -13z
m980 -537 c55 -22 138 -51 183 -63 l84 -23 -24 -18 c-25 -19 -120 -58 -143
-58 -8 0 -19 8 -24 18 -15 29 -107 95 -201 147 l-85 47 55 -5 c30 -3 100 -23
155 -45z m1042 -334 c-11 -239 -64 -443 -171 -656 -73 -145 -256 -415 -278
-409 -16 5 -128 174 -124 187 3 8 20 56 40 105 63 163 86 355 63 533 l-8 62
49 0 c158 0 334 118 404 271 13 27 25 49 27 49 2 0 1 -64 -2 -142z m850 -2078
l-3 -1435 -27 -110 c-38 -158 -80 -271 -157 -430 -251 -515 -732 -981 -1409
-1364 l-74 -42 75 83 c119 131 205 243 301 388 97 147 244 437 302 595 21 55
63 143 95 195 125 202 206 404 257 633 l27 122 3 1216 4 1217 122 138 c225
256 362 442 447 606 l35 68 3 -223 c1 -122 1 -868 -1 -1657z m-2799 1320 c30
-11 57 -21 59 -24 2 -2 -3 -30 -13 -62 -43 -148 26 -303 164 -371 52 -25 67
-28 164 -28 l106 0 22 -70 c31 -102 58 -276 62 -390 l3 -100 -150 -77 c-362
-185 -783 -340 -1234 -453 -79 -20 -145 -34 -147 -32 -2 2 -7 219 -9 483 l-6
479 65 52 c122 99 244 282 280 418 7 28 17 49 22 48 5 -2 36 -12 69 -24 111
-39 235 -10 321 76 22 23 47 56 55 74 14 32 15 33 63 26 28 -3 74 -15 104 -25z
m-7172 -332 c138 -182 306 -355 496 -510 79 -65 208 -162 256 -194 1 -1 -5
-29 -14 -63 l-17 -62 -43 7 c-24 3 -66 1 -94 -6 l-50 -12 0 -185 0 -185 25
-20 c21 -16 23 -23 14 -40 -6 -12 -19 -59 -28 -105 l-17 -84 -120 124 c-323
334 -507 688 -553 1062 -6 50 -11 184 -11 299 l0 209 54 -86 c30 -47 75 -114
102 -149z m3536 -754 c35 -6 36 -7 26 -35 -6 -16 -8 -62 -6 -102 3 -62 11 -86
55 -177 108 -218 152 -396 160 -635 6 -195 -6 -291 -58 -452 -25 -77 -33 -94
-40 -78 -5 11 -25 65 -45 120 -149 407 -433 763 -810 1014 -56 37 -132 83
-168 102 -36 19 -66 37 -66 42 0 23 321 135 480 167 169 34 378 49 472 34z
m4573 -341 c68 -516 -21 -1085 -234 -1503 l-48 -95 -37 2 c-31 2 -156 49 -156
58 0 2 16 27 36 56 63 93 161 307 213 463 102 311 152 628 177 1121 l7 140 14
-65 c7 -35 20 -115 28 -177z m-8156 -71 c134 -195 356 -429 576 -606 127 -102
371 -266 530 -357 381 -218 918 -430 1415 -559 128 -33 179 -50 166 -55 -27
-12 -331 2 -471 20 -189 25 -365 64 -412 91 -26 15 -70 28 -111 33 -37 5 -97
21 -133 36 -122 52 -194 74 -241 75 l-48 0 0 60 c0 56 -3 64 -37 101 -44 46
-86 57 -151 40 l-42 -12 0 -127 -1 -127 -49 -34 c-28 -18 -90 -71 -138 -117
l-88 -83 -80 66 c-413 342 -678 744 -766 1162 -15 75 -21 148 -24 331 l-5 235
25 -42 c13 -23 52 -82 85 -131z m7611 -392 l0 -480 -87 -41 c-166 -77 -396
-170 -572 -230 -257 -88 -663 -201 -676 -188 -2 3 -7 223 -11 490 l-7 484 215
53 c334 81 706 206 988 331 74 33 138 60 143 60 4 1 7 -215 7 -479z m-4925 11
c87 -66 245 -215 245 -230 0 -4 -15 -13 -34 -19 -44 -16 -102 -80 -115 -129
-6 -21 -11 -111 -11 -200 l0 -162 38 -10 c49 -13 274 -58 334 -66 l47 -7 3 98
3 99 38 -98 c20 -54 47 -136 59 -184 l22 -86 -28 -23 c-34 -30 -42 -30 -212 2
-627 115 -1246 323 -1734 582 l-124 66 68 32 c37 18 99 38 138 44 67 12 74 11
117 -10 75 -36 349 -160 355 -160 3 0 6 36 6 80 0 90 -1 89 85 71 22 -5 66
-12 98 -16 l57 -6 0 -113 0 -112 178 -57 c97 -31 189 -59 205 -63 l27 -6 0
196 c0 212 -4 230 -57 287 l-24 26 35 51 c34 51 76 149 76 177 0 8 3 15 7 15
4 0 48 -31 98 -69z m-2707 -758 c34 -53 100 -141 146 -197 91 -110 312 -329
419 -415 37 -30 67 -58 67 -63 0 -5 -22 -42 -49 -82 -27 -40 -65 -101 -85
-137 l-36 -64 0 178 0 177 -39 39 c-26 26 -53 42 -76 47 -39 7 -137 0 -155
-11 -5 -3 -10 -43 -10 -88 -1 -99 -3 -98 -90 73 -99 196 -160 403 -175 595 -4
67 -3 77 7 61 7 -10 41 -61 76 -113z m6922 -384 l0 -102 -182 6 c-174 6 -227
12 -322 38 l-41 12 185 48 c102 27 219 59 260 73 41 13 81 24 88 25 9 1 12
-25 12 -100z m841 -120 c21 -7 39 -15 39 -19 0 -4 -29 -40 -64 -82 -178 -207
-423 -342 -716 -392 l-95 -17 -32 37 c-30 34 -73 127 -73 158 0 9 31 16 103
24 247 27 463 130 631 300 l58 60 55 -29 c30 -16 72 -34 94 -40z m-1356 -259
c50 -11 131 -23 181 -26 l91 -7 11 -56 c7 -31 23 -80 37 -108 l24 -53 -76 0
c-95 0 -258 24 -388 56 -54 14 -100 26 -101 27 -1 1 -4 54 -6 118 l-3 116 70
-24 c39 -13 111 -33 160 -43z m-2804 -1650 c15 -39 24 -70 20 -70 -3 0 -78 -7
-166 -15 -372 -35 -750 -96 -1197 -192 -21 -4 -38 3 -76 31 -88 64 -94 59 115
110 232 56 485 106 708 141 197 31 460 63 525 64 l45 1 26 -70z m-1573 -271
c18 -28 32 -52 30 -53 -2 -1 -46 -12 -98 -25 -74 -19 -307 -84 -420 -117 -10
-3 -25 11 -42 41 l-28 46 28 10 c29 12 244 81 377 123 111 34 115 33 153 -25z"/>
<path d="M9016 7529 c-23 -33 -20 -78 8 -134 l24 -47 -49 4 -50 5 23 -24 c13
-14 43 -35 68 -48 130 -65 230 -25 201 81 -27 95 -98 171 -168 181 -34 4 -43
2 -57 -18z"/>
<path d="M843 5159 l-33 -10 0 -144 0 -145 138 -137 137 -138 3 239 c2 222 1
240 -17 270 -41 65 -135 92 -228 65z"/>
<path d="M833 3970 c-22 -9 -23 -15 -23 -122 l0 -113 140 -140 140 -140 0 217
0 216 -26 32 c-15 17 -39 37 -55 45 -31 17 -140 19 -176 5z"/>
<path d="M1258 3648 l-28 -10 0 -154 0 -154 132 -105 c72 -58 135 -105 140
-105 4 0 8 97 8 216 0 203 -1 219 -21 251 -29 46 -85 73 -151 72 -29 0 -65 -5
-80 -11z"/>
<path d="M7055 4036 c-40 -17 -95 -72 -111 -113 -11 -24 -14 -95 -14 -283 l0
-252 33 7 c59 13 322 74 352 83 l30 8 3 174 c1 96 -2 197 -8 225 -13 63 -59
121 -114 146 -48 22 -128 24 -171 5z"/>
</g>
</svg>
